# xmcd
# Track frame offsets:
# 150
# 13596
# 25503
# 39140
# 48618
# 64905
# 81067
# 90177
# 109379
# 123409
#
# Disc length: 1795 seconds
# Revision: 0
# Processed by: cddbd v1.4PL0 Copyright (c) Steve Scherf et al.
# Submitted via: VisiTrax 2.9.5.180 - For more info visit www.synapsa.com
#
DISCID=7007010a
DTITLE=Shane Worley - sings the gospel songs of Wayne Hailey
DYEAR=1900
DGENRE=
TTITLE0=The good outweighs the bad
TTITLE1=Jesus is love
TTITLE2=100 proof heart
TTITLE3=Movin' on
TTITLE4=Where would I be
TTITLE5=He lifted me up
TTITLE6=Get your house in order
TTITLE7=I'd be nothing without him
TTITLE8=Show me the way
TTITLE9=Mist of love
EXTD=
EXTT0=
EXTT1=
EXTT2=
EXTT3=
EXTT4=
EXTT5=
EXTT6=
EXTT7=
EXTT8=
EXTT9=
PLAYORDER=
